<?xml version="1.0" encoding="UTF-8"?>
<svg version="1.1" xmlns="http://www.w3.org/2000/svg" width="3509" height="2482">
<path d="M0 0 C0.75812988 0.36609375 1.51625977 0.7321875 2.29736328 1.109375 C22.13989906 10.8222214 38.2621897 24.04079842 54.5390625 38.81640625 C58.90619991 42.69137421 63.45594652 46.33607166 68 50 C69.27037109 51.05574219 69.27037109 51.05574219 70.56640625 52.1328125 C79.74178989 60.47316892 79.74178989 60.47316892 90.94921875 63.86328125 C104.57423216 60.0078037 117.15412844 45.72060381 127.33203125 36.39453125 C131.75337148 32.42632984 136.36267087 28.71109828 141 25 C142.09282875 24.10332853 143.18526126 23.20617396 144.27734375 22.30859375 C172.72672695 -0.85663843 208.652327 -14.76436331 245 -19 C245.93070313 -19.11085938 246.86140625 -19.22171875 247.8203125 -19.3359375 C324.73710052 -27.09049106 395.64965307 19.83532569 454.86376953 63.42871094 C457.1321846 65.09722744 459.40755697 66.7559606 461.68359375 68.4140625 C470.28698467 74.69826326 478.77462167 81.10752011 487.16015625 87.67944336 C493.55000611 92.67847115 500.0338874 97.54419918 506.53881836 102.39208984 C512.08921389 106.53837545 517.55825399 110.77508196 523 115.0625 C530.81372768 121.19803639 538.8827978 126.90712522 547.05078125 132.55859375 C551.80831776 135.85270199 556.50536577 139.22485448 561.1875 142.625 C566.9297048 146.79173755 572.69628385 150.9193564 578.5 155 C590.77754109 163.64043493 602.92436235 172.45490087 615 181.375 C617.32959729 183.09159455 619.65993996 184.80716358 621.99121094 186.52148438 C623.69690041 187.77691163 625.39956182 189.03645132 627.1015625 190.296875 C636.93309595 197.41941007 644.59477179 200.37343598 657 199 C664.66828783 197.2044326 670.65750985 190.38799845 676.44091797 185.34130859 C678.55850569 183.51950669 680.74131403 181.78833313 682.9375 180.0625 C688.30211252 175.80750603 693.49670146 171.36709038 698.65625 166.8671875 C700.63901321 165.14348442 702.61908271 163.53213002 704.71875 161.9453125 C711.65372075 156.55915189 713.88982692 150.33934612 716 142 C716.21108398 141.175 716.42216797 140.35 716.63964844 139.5 C719.42795907 128.23211326 721.28339337 116.93035684 722.375 105.37890625 C722.55840439 103.49855431 722.55840439 103.49855431 722.74551392 101.58021545 C723.86055067 90.0118027 724.828189 78.43028564 725.80897141 66.84989548 C726.36904684 60.25748248 726.93808402 53.66583335 727.50736046 47.07420921 C727.9969067 41.39254891 728.47775829 35.71036765 728.94238281 30.02661133 C729.39956764 24.44001754 729.87862655 18.85568883 730.37279129 13.27224922 C730.55538016 11.16421432 730.72998447 9.05547138 730.8962822 6.94608879 C731.12793524 4.02163203 731.38750181 1.10091903 731.65380859 -1.82055664 C731.74600929 -3.11147972 731.74600929 -3.11147972 731.84007263 -4.42848206 C732.25825415 -8.6843931 732.6812411 -10.59312248 735.39273071 -14.05418396 C738 -16 738 -16 741.0625 -16.3125 C745.33221955 -14.40475297 746.37629939 -11.16538477 748 -7 C749.40099013 -2.40409237 750.49648881 2.25481203 751.5625 6.9375 C751.73084351 7.66656555 751.89918701 8.3956311 752.07263184 9.14678955 C765.21489031 66.29314205 774.55446225 124.45079596 785.17590332 182.10204887 C786.41171243 188.80973338 787.64929917 195.51708679 788.88817787 202.22420502 C789.70802629 206.6645275 790.52652574 211.10509792 791.34469223 215.54573059 C791.72691246 217.61889645 792.10963458 219.69196986 792.49292374 221.76493835 C794.29438371 231.50999959 796.07562273 241.25752414 797.72705078 251.02929688 C797.85088575 251.75364677 797.97472073 252.47799667 798.10230827 253.22429657 C800.39233861 266.98469423 800.39233861 266.98469423 797.2980957 271.46337891 C794.83903621 274.17767065 793.08353616 275.22085486 789.734375 276.62890625 C788.09662109 277.32910889 788.09662109 277.32910889 786.42578125 278.04345703 C785.21277344 278.54474121 783.99976562 279.04602539 782.75 279.5625 C781.43573463 280.11723048 780.12194889 280.6730984 778.80859375 281.22998047 C775.05294881 282.81726198 771.28934028 284.38487339 767.52416992 285.94940186 C763.95412907 287.43530748 760.3883303 288.93128031 756.82214355 290.42640686 C743.56188989 295.9842123 730.28295525 301.49671592 717 307 C716.01056396 307.41008301 715.02112793 307.82016602 714.00170898 308.24267578 C690.33373184 318.05159155 666.64234119 327.80191421 642.91845703 337.47485352 C634.07835464 341.08240817 625.25246764 344.71979863 616.453125 348.42578125 C615.61451935 348.77830963 614.7759137 349.13083801 613.91189575 349.49404907 C609.96685125 351.15288141 606.0246534 352.81787044 602.08740234 354.49511719 C600.69639612 355.08163418 599.30528882 355.66791152 597.9140625 356.25390625 C596.7173291 356.76252197 595.5205957 357.2711377 594.28759766 357.79516602 C584.8838718 361.24142973 575.16520426 360.33535319 565.5 358.5625 C564.07264526 358.30786987 564.07264526 358.30786987 562.61645508 358.0480957 C549.47512581 355.62978543 536.42869291 352.71745146 523.37208557 349.88447571 C516.07305478 348.30108466 508.77330358 346.72906547 501.453125 345.24609375 C500.78557693 345.1108429 500.11802887 344.97559204 499.43025208 344.83624268 C496.76688867 344.29741883 494.10335278 343.75945016 491.43978882 343.22161865 C482.2346782 341.35605031 473.06638944 339.3543382 463.91015625 337.26171875 C462.85469604 337.02057343 461.79923584 336.7794281 460.71179199 336.53097534 C459.11542908 336.16614548 459.11542908 336.16614548 457.48681641 335.79394531 C429.43006549 329.38203092 429.43006549 329.38203092 401 325 C399.97443245 324.86767723 399.97443245 324.86767723 398.92814636 324.73268127 C391.43138605 323.85686717 383.93735476 323.81932766 376.40084076 323.76991272 C373.91733904 323.75346221 371.43394372 323.7312768 368.95050049 323.7076416 C365.39328236 323.67403659 361.83605553 323.64224724 358.27880859 323.61184692 C331.51065645 323.37812883 304.75210448 323.05722957 278 322.0625 C276.92971558 322.02488556 275.85943115 321.98727112 274.75671387 321.94851685 C268.16533473 321.71215646 261.58372347 321.39414841 255 321 C253.7988002 320.93878967 253.7988002 320.93878967 252.57333374 320.87634277 C240.09806865 320.18949705 230.12529324 316.77339161 218.8125 311.625 C217.09101871 310.86452218 215.36832462 310.10678483 213.64453125 309.3515625 C209.98727958 307.74708596 206.33523202 306.13149591 202.68603516 304.50878906 C193.99215642 300.65664082 185.22915495 296.96626816 176.47265625 293.25933838 C171.52480769 291.16322801 166.58090303 289.0578603 161.63671875 286.953125 C160.6665683 286.54035309 159.69641785 286.12758118 158.6968689 285.70230103 C152.98712835 283.27276757 147.27889706 280.83972723 141.57192993 278.40368652 C137.99572898 276.87746477 134.41881237 275.35292486 130.84179688 273.82861328 C129.19871155 273.12792303 127.55595167 272.42646895 125.91357422 271.72412109 C121.40467384 269.7960664 116.88908679 267.88539609 112.36431885 265.99487305 C110.69925547 265.29423714 109.03737633 264.58600976 107.37786865 263.87231445 C104.68924249 262.7169477 101.99217257 261.58352274 99.29296875 260.453125 C98.05611076 259.91301788 98.05611076 259.91301788 96.79426575 259.36199951 C89.65082749 256.41357504 84.80116269 257.03568535 77.61146545 260.0174408 C76.65136818 260.43033104 76.65136818 260.43033104 75.671875 260.8515625 C74.9789183 261.1418483 74.28596161 261.43213409 73.57200623 261.73121643 C71.29453582 262.6878054 69.02230747 263.65621793 66.75 264.625 C65.13087317 265.30831008 63.51148348 265.99099759 61.8918457 266.6730957 C56.92257427 268.76962606 51.96050207 270.882819 47 273 C46.26706726 273.31253723 45.53413452 273.62507446 44.7789917 273.94708252 C37.02816744 277.25275412 29.28433727 280.57459893 21.54296875 283.90234375 C5.40280972 290.83936859 -10.75539039 297.7338323 -26.93574524 304.57658386 C-31.791647 306.63205909 -36.63934009 308.70390735 -41.47283936 310.81152344 C-44.43354243 312.0983205 -47.40521061 313.35934564 -50.375 314.625 C-51.33921875 315.05586914 -52.3034375 315.48673828 -53.296875 315.93066406 C-68.50150266 322.31383933 -86.2818913 321.50610746 -102.5 322.0625 C-104.20680435 322.1251152 -104.20680435 322.1251152 -105.9480896 322.18899536 C-122.20059827 322.77868041 -138.44528631 323.08783876 -154.70703125 323.2421875 C-155.59760601 323.25103155 -156.48818077 323.2598756 -157.40574265 323.26898766 C-166.31722474 323.35739429 -175.22845989 323.43567544 -184.14032173 323.47129726 C-203.27302857 323.55630068 -222.04732579 324.03969848 -241 327 C-241.78098053 327.12196747 -242.56196106 327.24393494 -243.36660767 327.36959839 C-248.10093373 328.13404787 -252.80153731 329.04037459 -257.5 330 C-258.98561685 330.29522514 -260.47129665 330.59013366 -261.95703125 330.88476562 C-276.43122476 333.78366504 -290.83575356 337.01410818 -305.24383545 340.22229004 C-320.27157616 343.56821627 -335.31534554 346.71095342 -350.44384766 349.56494141 C-357.59795764 350.9195214 -364.72378919 352.34815826 -371.828125 353.9453125 C-372.91327896 354.18846191 -372.91327896 354.18846191 -374.02035522 354.43652344 C-377.4264915 355.20244631 -380.82838797 355.98155106 -384.22705078 356.78027344 C-398.9669708 360.14032436 -410.36607177 361.0419131 -424.3203125 355.0859375 C-425.00374222 354.79975555 -425.68717194 354.51357361 -426.39131165 354.21871948 C-428.63820982 353.27626304 -430.88157307 352.32568637 -433.125 351.375 C-434.73033677 350.69968788 -436.33589159 350.02489393 -437.94165039 349.35058594 C-441.29370941 347.94175404 -444.64428716 346.52948197 -447.99365234 345.11425781 C-452.73930537 343.10912976 -457.48832063 341.11208561 -462.23828125 339.1171875 C-469.3242179 336.14011554 -476.40708646 333.15582492 -483.48849487 330.16799927 C-488.58403269 328.01824371 -493.68077806 325.87138302 -498.77842712 323.72663879 C-521.00952334 314.37204739 -543.20616669 304.9385869 -565.375 295.4375 C-566.53988953 294.93839111 -567.70477905 294.43928223 -568.90496826 293.92504883 C-574.4704375 291.53977736 -580.03367653 289.14959793 -585.59277344 286.74951172 C-589.92708771 284.88086746 -594.27462376 283.04864248 -598.63378906 281.23876953 C-600.22013657 280.57156639 -600.22013657 280.57156639 -601.83853149 279.8908844 C-603.82975746 279.05359501 -605.82545081 278.22681948 -607.82626343 277.41270447 C-616.82859792 273.59787618 -616.82859792 273.59787618 -619 269 C-619.79549097 262.06515508 -618.79226976 255.2504698 -617.515625 248.4375 C-617.34843964 247.50301025 -617.18125427 246.56852051 -617.00900269 245.60571289 C-616.43253511 242.40193723 -615.84141456 239.20104802 -615.25 236 C-614.81833887 233.62509242 -614.38721044 231.25008797 -613.95654297 228.875 C-612.32469241 219.91288779 -610.663834 210.95622195 -609 202 C-608.82462204 201.05562073 -608.64924408 200.11124146 -608.46855164 199.13824463 C-603.41652046 171.93754673 -598.33113288 144.74313593 -593.22680092 117.55220795 C-590.70444453 104.11486463 -588.19202835 90.67581209 -585.70662689 77.23158264 C-584.90043933 72.87335689 -584.09128319 68.51568114 -583.28217316 64.15799713 C-582.68930369 60.96315859 -582.09908828 57.76786771 -581.51300049 54.57177734 C-579.05567624 41.17501557 -576.38496749 27.84102763 -573.42578125 14.546875 C-573.14550583 13.27378479 -572.86523041 12.00069458 -572.57646179 10.68902588 C-567.54311159 -11.5255837 -567.54311159 -11.5255837 -562 -16 C-558.9375 -16 -558.9375 -16 -556 -15 C-553.30332069 -12.1121757 -552.57756072 -9.93732523 -552.24855042 -6.04216003 C-552.15765137 -5.04337326 -552.06675232 -4.04458649 -551.97309875 -3.01553345 C-551.84441658 -1.380121 -551.84441658 -1.380121 -551.71313477 0.28833008 C-551.61183258 1.44190506 -551.5105304 2.59548004 -551.40615845 3.78401184 C-551.18756001 6.29344569 -550.97506711 8.80341708 -550.76791573 11.31382179 C-550.43823708 15.30792614 -550.09304191 19.300524 -549.7431488 23.29289246 C-549.06346697 31.07845199 -548.40307771 38.86558828 -547.74510193 46.65300751 C-546.91286614 56.49521975 -546.07303279 66.33673898 -545.21370548 76.17662543 C-544.81517249 80.74879518 -544.43259071 85.32213079 -544.05335999 89.89595032 C-542.35621259 109.80505479 -540.11514594 129.88707424 -534 149 C-533.66162109 150.12148437 -533.66162109 150.12148437 -533.31640625 151.265625 C-529.42672344 161.18129311 -517.14424084 169.04853411 -509.0859375 175.51171875 C-506.65440283 177.47233595 -504.24803804 179.45419279 -501.8515625 181.45703125 C-501.11325195 182.0720752 -500.37494141 182.68711914 -499.61425781 183.32080078 C-498.16572266 184.52833456 -496.71958969 185.73875833 -495.27636719 186.95263672 C-485.97262483 194.67936176 -479.15606718 199.56903419 -466.734375 199.37890625 C-454.35799932 198.12314428 -444.0112289 188.07314692 -434.44482422 180.8359375 C-430.6468222 177.98383293 -426.79446393 175.20907229 -422.9375 172.4375 C-421.44786108 171.36466052 -419.95827773 170.29174386 -418.46875 169.21875 C-417.73269531 168.68894531 -416.99664063 168.15914062 -416.23828125 167.61328125 C-413.97933793 165.98510744 -411.72357339 164.35262375 -409.46875 162.71875 C-401.48262435 156.93403295 -393.46686945 151.19651775 -385.40087891 145.52368164 C-379.40942628 141.30385034 -373.46464253 137.02140648 -367.53051758 132.72143555 C-363.50925853 129.80831128 -359.47674251 126.91304873 -355.42431641 124.04345703 C-348.68513082 119.26710424 -342.10936279 114.30993299 -335.59130859 109.23681641 C-332.98479359 107.21094881 -330.36698444 105.19981474 -327.75 103.1875 C-327.21818115 102.77838379 -326.6863623 102.36926758 -326.13842773 101.94775391 C-319.56688531 96.89421353 -312.98088882 91.85962284 -306.39208984 86.82861328 C-303.83874054 84.87672654 -301.28847811 82.92084707 -298.73828125 80.96484375 C-289.55676068 73.93183711 -280.35839853 66.95226143 -270.88183594 60.32080078 C-268.75103965 58.82526265 -266.62955673 57.31694484 -264.5078125 55.80859375 C-218.26856198 23.05037723 -164.5993694 -12.44769078 -107 -19 C-106.06671875 -19.11085938 -105.1334375 -19.22171875 -104.171875 -19.3359375 C-68.6933267 -22.9225667 -31.99583604 -15.48786106 0 0 Z " fill="#FFFFFF" transform="translate(1623,965)"/>
</svg>
